Coordinates
version=1
nRows=29
nColumns=24
inDegrees=yes

Units are S.I. units (second, meters, Newtons, ...)
Angles are in degrees.

endheader
time	pelvis_tilt	pelvis_list	pelvis_rotation	pelvis_tx	pelvis_ty	pelvis_tz	hip_flexion_r	hip_adduction_r	hip_rotation_r	knee_angle_r	ankle_angle_r	subtalar_angle_r	mtp_angle_r	hip_flexion_l	hip_adduction_l	hip_rotation_l	knee_angle_l	ankle_angle_l	subtalar_angle_l	mtp_angle_l	lumbar_extension	lumbar_bending	lumbar_rotation
      3.29000000	     -1.67583689	      6.82269113	     -3.42366014	     -0.37146654	      0.93194996	      0.23445482	     23.41336801	     -5.10262060	      2.37124229	    -70.55342908	      8.10241146	    -15.34787549	      0.00000000	     16.22219445	     13.15145250	      0.74188559	    -25.25056295	     17.50219865	    -15.86446607	      0.00000000	     -8.38965441	    -10.33508374	     -6.24289147
      3.29500000	     -1.59870988	      6.54872590	     -3.17542872	     -0.36473698	      0.93357328	      0.23409483	     23.91333635	     -4.75301352	      2.36231779	    -69.73191701	      8.52053294	    -14.97713578	      0.00000000	     15.30179354	     13.03394723	      1.40925983	    -24.67356887	     17.42376671	    -16.19285347	      0.00000000	     -8.53917588	     -9.95988280	     -6.45498130
      3.30000000	     -1.54567917	      6.26438000	     -2.92567540	     -0.35803851	      0.93507729	      0.23372624	     24.40752441	     -4.40001466	      2.33370667	    -68.81607218	      8.91209520	    -14.69236440	      0.00000000	     14.42371238	     12.88888721	      2.02976971	    -24.11354974	     17.36420274	    -16.52589979	      0.00000000	     -8.65922315	     -9.56564642	     -6.66738203
      3.30500000	     -1.49351980	      5.98677200	     -2.67482407	     -0.35136718	      0.93651752	      0.23337296	     24.87558087	     -4.05779951	      2.30150495	    -67.81250989	      9.22747860	    -14.49077112	      0.00000000	     13.54904473	     12.73913649	      2.65762010	    -23.54722615	     17.28627338	    -16.86688817	      0.00000000	     -8.77907496	     -9.18347933	     -6.87635571
      3.31000000	     -1.45044608	      5.71343861	     -2.42376099	     -0.34471021	      0.93786415	      0.23304849	     25.32339698	     -3.72185542	      2.26649377	    -66.72268642	      9.49360551	    -14.36826138	      0.00000000	     12.69171964	     12.57908777	      3.26955103	    -22.98429063	     17.20960318	    -17.20866664	      0.00000000	     -8.88778069	     -8.80982290	     -7.07866227
      3.31500000	     -1.39862523	      5.46027303	     -2.17600392	     -0.33808813	      0.93914022	      0.23273507	     25.73465193	     -3.40361221	      2.25321011	    -65.55050196	      9.70358088	    -14.32419167	      0.00000000	     11.83116799	     12.43118119	      3.90409651	    -22.42262549	     17.11278560	    -17.55257328	      0.00000000	     -9.01056583	     -8.45775296	     -7.30947543
      3.32000000	     -1.35927019	      5.21395086	     -1.92850400	     -0.33146004	      0.94029759	      0.23242866	     26.12776379	     -3.10290932	      2.22698028	    -64.29434324	      9.88157202	    -14.35038872	      0.00000000	     10.99383267	     12.27581849	      4.48987276	    -21.86608956	     17.03196395	    -17.89903886	      0.00000000	     -9.11235076	     -8.11361155	     -7.52050123
      3.32500000	     -1.32562140	      4.97935793	     -1.67902220	     -0.32483886	      0.94135004	      0.23213426	     26.49534790	     -2.81954773	      2.20149435	    -62.95648842	     10.01983597	    -14.44539202	      0.00000000	     10.17218671	     12.12130723	      5.05712453	    -21.31783452	     16.95534831	    -18.24370720	      0.00000000	     -9.20602174	     -7.78299239	     -7.73554370
      3.33000000	     -1.28824801	      4.76232746	     -1.43133636	     -0.31822072	      0.94230836	      0.23184587	     26.82775568	     -2.56025271	      2.18461599	    -61.54057392	     10.12831421	    -14.58014773	      0.00000000	      9.35224650	     11.97568100	      5.61405506	    -20.77080825	     16.87599945	    -18.59465573	      0.00000000	     -9.30333758	     -7.47281386	     -7.95409642
      3.33500000	     -1.26067332	      4.55898561	     -1.18302457	     -0.31159877	      0.94315014	      0.23156589	     27.13822725	     -2.32149499	      2.17097131	    -60.04676398	     10.20015368	    -14.76373703	      0.00000000	      8.55285007	     11.83364134	      6.14437647	    -20.23508997	     16.80994528	    -18.93766946	      0.00000000	     -9.38433739	     -7.17626845	     -8.16834764
      3.34000000	     -1.22493400	      4.37355554	     -0.93383289	     -0.30498771	      0.94390184	      0.23128673	     27.40844031	     -2.10992575	      2.16414103	    -58.47873700	     10.25188038	    -14.96445483	      0.00000000	      7.74901170	     11.70286636	      6.67466780	    -19.70084248	     16.73595295	    -19.29010700	      0.00000000	     -9.47710621	     -6.89975423	     -8.39341300
      3.34500000	     -1.19916284	      4.20296491	     -0.68574602	     -0.29837679	      0.94453681	      0.23103368	     27.65830626	     -1.91905438	      2.16371100	    -56.83942503	     10.27391527	    -15.18179744	      0.00000000	      6.96318232	     11.57621253	      7.18113325	    -19.17381106	     16.67358662	    -19.63368677	      0.00000000	     -9.55544746	     -6.64589971	     -8.61312542
      3.35000000	     -1.15497253	      4.05077972	     -0.43758645	     -0.29176311	      0.94508894	      0.23074129	     27.85341411	     -1.76274313	      2.16941714	    -55.12951650	     10.31181435	    -15.36254508	      0.00000000	      6.16095368	     11.46704676	      7.69044586	    -18.64932724	     16.59498654	    -20.01526535	      0.00000000	     -9.65725839	     -6.40077120	     -8.83458513
      3.35500000	     -1.15430649	      3.91442043	     -0.18728549	     -0.28516441	      0.94549526	      0.23051443	     28.06994178	     -1.62309407	      2.17971524	    -53.35584374	     10.25209413	    -15.59751071	      0.00000000	      5.41319161	     11.35584894	      8.16434879	    -18.13414270	     16.55512193	    -20.32332472	      0.00000000	     -9.70713090	     -6.18802222	     -9.05587321
      3.36000000	     -1.13570729	      3.79479631	      0.06330001	     -0.27855896	      0.94582438	      0.23025364	     28.23213663	     -1.51765881	      2.19193712	    -51.51657932	     10.21473930	    -15.77028067	      0.00000000	      4.64719173	     11.25931653	      8.63956101	    -17.61933202	     16.50167378	    -20.65919434	      0.00000000	     -9.77836698	     -5.98493555	     -9.27734621
      3.36500000	     -1.12553142	      3.69586786	      0.30948026	     -0.27195661	      0.94604579	      0.22998992	     28.37355865	     -1.44477712	      2.20904320	    -49.61811203	     10.16745135	    -15.90032168	      0.00000000	      3.89468753	     11.17647846	      9.09528773	    -17.10894240	     16.45372779	    -20.98294265	      0.00000000	     -9.83852234	     -5.80249662	     -9.49240802
      3.37000000	     -1.12099244	      3.61497118	      0.55803656	     -0.26535907	      0.94616720	      0.22974471	     28.49077670	     -1.40219971	      2.22598502	    -47.66453565	     10.11507387	    -15.97575493	      0.00000000	      3.14922319	     11.10192111	      9.53549256	    -16.59711499	     16.41131182	    -21.29460761	      0.00000000	     -9.89649916	     -5.64486621	     -9.70386173
      3.37500000	     -1.10505516	      3.55968396	      0.79585703	     -0.25876827	      0.94620743	      0.22950026	     28.56396955	     -1.39518060	      2.25321202	    -45.65512839	     10.09063930	    -15.97454284	      0.00000000	      2.39633827	     11.04850478	      9.96957429	    -16.09322499	     16.35924952	    -21.61658494	      0.00000000	     -9.96822466	     -5.51236241	     -9.92523526
      3.38000000	     -1.12062694	      3.51492799	      1.04063964	     -0.25217075	      0.94612852	      0.22925104	     28.64324599	     -1.41646618	      2.26271660	    -43.60099077	     10.03427584	    -15.91951726	      0.00000000	      1.67849425	     10.99370277	     10.36664383	    -15.58927931	     16.34411831	    -21.87063017	      0.00000000	    -10.00335256	     -5.39221443	    -10.12443064
      3.38500000	     -1.11993584	      3.49285357	      1.27302632	     -0.24557334	      0.94598251	      0.22902004	     28.67395455	     -1.47194678	      2.26373097	    -41.49713478	     10.01322399	    -15.77668449	      0.00000000	      0.94643053	     10.95483443	     10.75672169	    -15.09198907	     16.32574126	    -22.12115530	      0.00000000	    -10.05885608	     -5.29841812	    -10.33229486
      3.39000000	     -1.15918576	      3.47599931	      1.50252340	     -0.23896594	      0.94568538	      0.22879470	     28.71999987	     -1.54856860	      2.23588042	    -39.35448359	     10.02138973	    -15.54957821	      0.00000000	      0.27194674	     10.91253217	     11.08095936	    -14.61833255	     16.36122728	    -22.30953988	      0.00000000	    -10.06432061	     -5.21292735	    -10.48418823
      3.39500000	     -1.14715972	      3.49939656	      1.73734972	     -0.23237144	      0.94540228	      0.22855792	     28.68556720	     -1.67874723	      2.20959679	    -37.18709509	     10.02563773	    -15.24252299	      0.00000000	     -0.47115673	     10.90198054	     11.44262399	    -14.12208416	     16.35521385	    -22.49718465	      0.00000000	    -10.14449078	     -5.16671229	    -10.71674668
      3.40000000	     -1.18077763	      3.52486117	      1.95738432	     -0.22575757	      0.94495185	      0.22834753	     28.67748479	     -1.82345709	      2.13367007	    -34.99190254	     10.08327646	    -14.85123219	      0.00000000	     -1.14065656	     10.88754628	     11.72947845	    -13.67064389	     16.40958300	    -22.62895197	      0.00000000	    -10.16499131	     -5.12947391	    -10.87172359
      3.40500000	     -1.19609342	      3.57001782	      2.18473534	     -0.21914524	      0.94445812	      0.22813159	     28.63165860	     -2.00360000	      2.02049800	    -32.79157970	     10.15326955	    -14.37244567	      0.00000000	     -1.83009436	     10.88357658	     12.01199509	    -13.21994781	     16.47331948	    -22.72173011	      0.00000000	    -10.21305119	     -5.11181157	    -11.05980720
      3.41000000	     -1.18030613	      3.64664754	      2.39515160	     -0.21250721	      0.94393426	      0.22793253	     28.54600009	     -2.22413579	      1.84790039	    -30.60355619	     10.24193577	    -13.81940079	      0.00000000	     -2.56053951	     10.90300771	     12.29807949	    -12.76087819	     16.52309371	    -22.79609391	      0.00000000	    -10.29598164	     -5.12739286	    -11.27676111
      3.41500000	     -1.20520413	      3.71045867	      2.60205156	     -0.20583092	      0.94326414	      0.22773895	     28.49276615	     -2.44385070	      1.59009822	    -28.42729380	     10.37207577	    -13.18017238	      0.00000000	     -3.22195855	     10.90582593	     12.52604026	    -12.35258860	     16.63951610	    -22.81486417	      0.00000000	    -10.32489635	     -5.13017780	    -11.42174116
      3.42000000	     -1.19496292	      3.79421551	      2.81627756	     -0.19913919	      0.94257876	      0.22755686	     28.40278352	     -2.69401520	      1.24866789	    -26.29610112	     10.52585418	    -12.44866748	      0.00000000	     -3.92368500	     10.91709463	     12.75810874	    -11.94496262	     16.75943881	    -22.79636719	      0.00000000	    -10.40141281	     -5.15646451	    -11.61103099
      3.42500000	     -1.16513032	      3.88903759	      3.02760222	     -0.19243007	      0.94185474	      0.22741317	     28.30174590	     -2.95720310	      0.81578963	    -24.22867541	     10.70113598	    -11.63154235	      0.00000000	     -4.64596008	     10.92858087	     12.98633746	    -11.54099488	     16.88392415	    -22.75717340	      0.00000000	    -10.50504744	     -5.19965722	    -11.80745024
      3.43000000	     -1.14740578	      3.96119040	      3.23475776	     -0.18566239	      0.94103915	      0.22726385	     28.21946397	     -3.19984806	      0.26712863	    -22.22397703	     10.90111914	    -10.73756134	      0.00000000	     -5.33442198	     10.91411314	     13.18460451	    -11.18443003	     17.06120250	    -22.67862030	      0.00000000	    -10.57976257	     -5.21016248	    -11.95699065
